G04 #@! TF.GenerationSoftware,KiCad,Pcbnew,5.0.1*
G04 #@! TF.CreationDate,2018-12-16T15:03:13+01:00*
G04 #@! TF.ProjectId,micro-usb-breakout,6D6963726F2D7573622D627265616B6F,rev?*
G04 #@! TF.SameCoordinates,Original*
G04 #@! TF.FileFunction,Copper,L1,Top,Signal*
G04 #@! TF.FilePolarity,Positive*
%FSLAX46Y46*%
G04 Gerber Fmt 4.6, Leading zero omitted, Abs format (unit mm)*
G04 Created by KiCad (PCBNEW 5.0.1) date Sun 16 Dec 2018 03:03:13 PM CET*
%MOMM*%
%LPD*%
G01*
G04 APERTURE LIST*
G04 #@! TA.AperFunction,Conductor*
%ADD10C,0.100000*%
G04 #@! TD*
G04 #@! TA.AperFunction,ComponentPad*
%ADD11C,1.450000*%
G04 #@! TD*
G04 #@! TA.AperFunction,SMDPad,CuDef*
%ADD12R,1.350000X0.400000*%
G04 #@! TD*
G04 #@! TA.AperFunction,ComponentPad*
%ADD13C,1.200000*%
G04 #@! TD*
G04 #@! TA.AperFunction,ComponentPad*
%ADD14C,1.700000*%
G04 #@! TD*
G04 #@! TA.AperFunction,Conductor*
%ADD15C,0.406400*%
G04 #@! TD*
G04 #@! TA.AperFunction,Conductor*
%ADD16C,0.762000*%
G04 #@! TD*
G04 APERTURE END LIST*
D10*
G04 #@! TO.N,*
G04 #@! TO.C,J1*
G36*
X135524031Y-81088246D02*
X135559220Y-81093465D01*
X135593728Y-81102109D01*
X135627223Y-81114094D01*
X135659381Y-81129304D01*
X135689894Y-81147592D01*
X135718468Y-81168784D01*
X135744826Y-81192674D01*
X135768716Y-81219032D01*
X135789908Y-81247606D01*
X135808196Y-81278119D01*
X135823406Y-81310277D01*
X135835391Y-81343772D01*
X135844035Y-81378280D01*
X135849254Y-81413469D01*
X135851000Y-81449000D01*
X135851000Y-82174000D01*
X135849254Y-82209531D01*
X135844035Y-82244720D01*
X135835391Y-82279228D01*
X135823406Y-82312723D01*
X135808196Y-82344881D01*
X135789908Y-82375394D01*
X135768716Y-82403968D01*
X135744826Y-82430326D01*
X135718468Y-82454216D01*
X135689894Y-82475408D01*
X135659381Y-82493696D01*
X135627223Y-82508906D01*
X135593728Y-82520891D01*
X135559220Y-82529535D01*
X135524031Y-82534754D01*
X135488500Y-82536500D01*
X134763500Y-82536500D01*
X134727969Y-82534754D01*
X134692780Y-82529535D01*
X134658272Y-82520891D01*
X134624777Y-82508906D01*
X134592619Y-82493696D01*
X134562106Y-82475408D01*
X134533532Y-82454216D01*
X134507174Y-82430326D01*
X134483284Y-82403968D01*
X134462092Y-82375394D01*
X134443804Y-82344881D01*
X134428594Y-82312723D01*
X134416609Y-82279228D01*
X134407965Y-82244720D01*
X134402746Y-82209531D01*
X134401000Y-82174000D01*
X134401000Y-81449000D01*
X134402746Y-81413469D01*
X134407965Y-81378280D01*
X134416609Y-81343772D01*
X134428594Y-81310277D01*
X134443804Y-81278119D01*
X134462092Y-81247606D01*
X134483284Y-81219032D01*
X134507174Y-81192674D01*
X134533532Y-81168784D01*
X134562106Y-81147592D01*
X134592619Y-81129304D01*
X134624777Y-81114094D01*
X134658272Y-81102109D01*
X134692780Y-81093465D01*
X134727969Y-81088246D01*
X134763500Y-81086500D01*
X135488500Y-81086500D01*
X135524031Y-81088246D01*
X135524031Y-81088246D01*
G37*
D11*
G04 #@! TD*
G04 #@! TO.P,J1,*
G04 #@! TO.N,*
X135126000Y-81811500D03*
D12*
G04 #@! TO.P,J1,2*
G04 #@! TO.N,Net-(J1-Pad2)*
X135126000Y-79961500D03*
G04 #@! TO.P,J1,1*
G04 #@! TO.N,Net-(J1-Pad1)*
X135126000Y-80611500D03*
G04 #@! TO.P,J1,5*
G04 #@! TO.N,Net-(J1-Pad5)*
X135126000Y-78011500D03*
G04 #@! TO.P,J1,4*
G04 #@! TO.N,Net-(J1-Pad4)*
X135126000Y-78661500D03*
G04 #@! TO.P,J1,3*
G04 #@! TO.N,Net-(J1-Pad3)*
X135126000Y-79311500D03*
D10*
G04 #@! TD*
G04 #@! TO.N,*
G04 #@! TO.C,J1*
G36*
X135524031Y-76088246D02*
X135559220Y-76093465D01*
X135593728Y-76102109D01*
X135627223Y-76114094D01*
X135659381Y-76129304D01*
X135689894Y-76147592D01*
X135718468Y-76168784D01*
X135744826Y-76192674D01*
X135768716Y-76219032D01*
X135789908Y-76247606D01*
X135808196Y-76278119D01*
X135823406Y-76310277D01*
X135835391Y-76343772D01*
X135844035Y-76378280D01*
X135849254Y-76413469D01*
X135851000Y-76449000D01*
X135851000Y-77174000D01*
X135849254Y-77209531D01*
X135844035Y-77244720D01*
X135835391Y-77279228D01*
X135823406Y-77312723D01*
X135808196Y-77344881D01*
X135789908Y-77375394D01*
X135768716Y-77403968D01*
X135744826Y-77430326D01*
X135718468Y-77454216D01*
X135689894Y-77475408D01*
X135659381Y-77493696D01*
X135627223Y-77508906D01*
X135593728Y-77520891D01*
X135559220Y-77529535D01*
X135524031Y-77534754D01*
X135488500Y-77536500D01*
X134763500Y-77536500D01*
X134727969Y-77534754D01*
X134692780Y-77529535D01*
X134658272Y-77520891D01*
X134624777Y-77508906D01*
X134592619Y-77493696D01*
X134562106Y-77475408D01*
X134533532Y-77454216D01*
X134507174Y-77430326D01*
X134483284Y-77403968D01*
X134462092Y-77375394D01*
X134443804Y-77344881D01*
X134428594Y-77312723D01*
X134416609Y-77279228D01*
X134407965Y-77244720D01*
X134402746Y-77209531D01*
X134401000Y-77174000D01*
X134401000Y-76449000D01*
X134402746Y-76413469D01*
X134407965Y-76378280D01*
X134416609Y-76343772D01*
X134428594Y-76310277D01*
X134443804Y-76278119D01*
X134462092Y-76247606D01*
X134483284Y-76219032D01*
X134507174Y-76192674D01*
X134533532Y-76168784D01*
X134562106Y-76147592D01*
X134592619Y-76129304D01*
X134624777Y-76114094D01*
X134658272Y-76102109D01*
X134692780Y-76093465D01*
X134727969Y-76088246D01*
X134763500Y-76086500D01*
X135488500Y-76086500D01*
X135524031Y-76088246D01*
X135524031Y-76088246D01*
G37*
D11*
G04 #@! TO.P,J1,*
G04 #@! TO.N,*
X135126000Y-76811500D03*
D10*
G04 #@! TD*
G04 #@! TO.N,*
G04 #@! TO.C,J1*
G36*
X138505405Y-82212945D02*
X138534527Y-82217264D01*
X138563085Y-82224418D01*
X138590805Y-82234336D01*
X138617419Y-82246924D01*
X138642671Y-82262059D01*
X138666318Y-82279597D01*
X138688132Y-82299368D01*
X138707903Y-82321182D01*
X138725441Y-82344829D01*
X138740576Y-82370081D01*
X138753164Y-82396695D01*
X138763082Y-82424415D01*
X138770236Y-82452973D01*
X138774555Y-82482095D01*
X138776000Y-82511500D01*
X138776000Y-83111500D01*
X138774555Y-83140905D01*
X138770236Y-83170027D01*
X138763082Y-83198585D01*
X138753164Y-83226305D01*
X138740576Y-83252919D01*
X138725441Y-83278171D01*
X138707903Y-83301818D01*
X138688132Y-83323632D01*
X138666318Y-83343403D01*
X138642671Y-83360941D01*
X138617419Y-83376076D01*
X138590805Y-83388664D01*
X138563085Y-83398582D01*
X138534527Y-83405736D01*
X138505405Y-83410055D01*
X138476000Y-83411500D01*
X137176000Y-83411500D01*
X137146595Y-83410055D01*
X137117473Y-83405736D01*
X137088915Y-83398582D01*
X137061195Y-83388664D01*
X137034581Y-83376076D01*
X137009329Y-83360941D01*
X136985682Y-83343403D01*
X136963868Y-83323632D01*
X136944097Y-83301818D01*
X136926559Y-83278171D01*
X136911424Y-83252919D01*
X136898836Y-83226305D01*
X136888918Y-83198585D01*
X136881764Y-83170027D01*
X136877445Y-83140905D01*
X136876000Y-83111500D01*
X136876000Y-82511500D01*
X136877445Y-82482095D01*
X136881764Y-82452973D01*
X136888918Y-82424415D01*
X136898836Y-82396695D01*
X136911424Y-82370081D01*
X136926559Y-82344829D01*
X136944097Y-82321182D01*
X136963868Y-82299368D01*
X136985682Y-82279597D01*
X137009329Y-82262059D01*
X137034581Y-82246924D01*
X137061195Y-82234336D01*
X137088915Y-82224418D01*
X137117473Y-82217264D01*
X137146595Y-82212945D01*
X137176000Y-82211500D01*
X138476000Y-82211500D01*
X138505405Y-82212945D01*
X138505405Y-82212945D01*
G37*
D13*
G04 #@! TO.P,J1,*
G04 #@! TO.N,*
X137826000Y-82811500D03*
D10*
G04 #@! TD*
G04 #@! TO.N,*
G04 #@! TO.C,J1*
G36*
X138505405Y-75212945D02*
X138534527Y-75217264D01*
X138563085Y-75224418D01*
X138590805Y-75234336D01*
X138617419Y-75246924D01*
X138642671Y-75262059D01*
X138666318Y-75279597D01*
X138688132Y-75299368D01*
X138707903Y-75321182D01*
X138725441Y-75344829D01*
X138740576Y-75370081D01*
X138753164Y-75396695D01*
X138763082Y-75424415D01*
X138770236Y-75452973D01*
X138774555Y-75482095D01*
X138776000Y-75511500D01*
X138776000Y-76111500D01*
X138774555Y-76140905D01*
X138770236Y-76170027D01*
X138763082Y-76198585D01*
X138753164Y-76226305D01*
X138740576Y-76252919D01*
X138725441Y-76278171D01*
X138707903Y-76301818D01*
X138688132Y-76323632D01*
X138666318Y-76343403D01*
X138642671Y-76360941D01*
X138617419Y-76376076D01*
X138590805Y-76388664D01*
X138563085Y-76398582D01*
X138534527Y-76405736D01*
X138505405Y-76410055D01*
X138476000Y-76411500D01*
X137176000Y-76411500D01*
X137146595Y-76410055D01*
X137117473Y-76405736D01*
X137088915Y-76398582D01*
X137061195Y-76388664D01*
X137034581Y-76376076D01*
X137009329Y-76360941D01*
X136985682Y-76343403D01*
X136963868Y-76323632D01*
X136944097Y-76301818D01*
X136926559Y-76278171D01*
X136911424Y-76252919D01*
X136898836Y-76226305D01*
X136888918Y-76198585D01*
X136881764Y-76170027D01*
X136877445Y-76140905D01*
X136876000Y-76111500D01*
X136876000Y-75511500D01*
X136877445Y-75482095D01*
X136881764Y-75452973D01*
X136888918Y-75424415D01*
X136898836Y-75396695D01*
X136911424Y-75370081D01*
X136926559Y-75344829D01*
X136944097Y-75321182D01*
X136963868Y-75299368D01*
X136985682Y-75279597D01*
X137009329Y-75262059D01*
X137034581Y-75246924D01*
X137061195Y-75234336D01*
X137088915Y-75224418D01*
X137117473Y-75217264D01*
X137146595Y-75212945D01*
X137176000Y-75211500D01*
X138476000Y-75211500D01*
X138505405Y-75212945D01*
X138505405Y-75212945D01*
G37*
D13*
G04 #@! TO.P,J1,*
G04 #@! TO.N,*
X137826000Y-75811500D03*
G04 #@! TD*
D10*
G04 #@! TO.N,Net-(J1-Pad1)*
G04 #@! TO.C,J2*
G36*
X129117657Y-83543546D02*
X129158913Y-83549666D01*
X129199371Y-83559800D01*
X129238640Y-83573851D01*
X129276344Y-83591683D01*
X129312117Y-83613125D01*
X129345617Y-83637971D01*
X129376520Y-83665980D01*
X129404529Y-83696883D01*
X129429375Y-83730383D01*
X129450817Y-83766156D01*
X129468649Y-83803860D01*
X129482700Y-83843129D01*
X129492834Y-83883587D01*
X129498954Y-83924843D01*
X129501000Y-83966500D01*
X129501000Y-84816500D01*
X129498954Y-84858157D01*
X129492834Y-84899413D01*
X129482700Y-84939871D01*
X129468649Y-84979140D01*
X129450817Y-85016844D01*
X129429375Y-85052617D01*
X129404529Y-85086117D01*
X129376520Y-85117020D01*
X129345617Y-85145029D01*
X129312117Y-85169875D01*
X129276344Y-85191317D01*
X129238640Y-85209149D01*
X129199371Y-85223200D01*
X129158913Y-85233334D01*
X129117657Y-85239454D01*
X129076000Y-85241500D01*
X128226000Y-85241500D01*
X128184343Y-85239454D01*
X128143087Y-85233334D01*
X128102629Y-85223200D01*
X128063360Y-85209149D01*
X128025656Y-85191317D01*
X127989883Y-85169875D01*
X127956383Y-85145029D01*
X127925480Y-85117020D01*
X127897471Y-85086117D01*
X127872625Y-85052617D01*
X127851183Y-85016844D01*
X127833351Y-84979140D01*
X127819300Y-84939871D01*
X127809166Y-84899413D01*
X127803046Y-84858157D01*
X127801000Y-84816500D01*
X127801000Y-83966500D01*
X127803046Y-83924843D01*
X127809166Y-83883587D01*
X127819300Y-83843129D01*
X127833351Y-83803860D01*
X127851183Y-83766156D01*
X127872625Y-83730383D01*
X127897471Y-83696883D01*
X127925480Y-83665980D01*
X127956383Y-83637971D01*
X127989883Y-83613125D01*
X128025656Y-83591683D01*
X128063360Y-83573851D01*
X128102629Y-83559800D01*
X128143087Y-83549666D01*
X128184343Y-83543546D01*
X128226000Y-83541500D01*
X129076000Y-83541500D01*
X129117657Y-83543546D01*
X129117657Y-83543546D01*
G37*
D14*
G04 #@! TD*
G04 #@! TO.P,J2,1*
G04 #@! TO.N,Net-(J1-Pad1)*
X128651000Y-84391500D03*
D10*
G04 #@! TO.N,Net-(J1-Pad2)*
G04 #@! TO.C,J2*
G36*
X129117657Y-81003546D02*
X129158913Y-81009666D01*
X129199371Y-81019800D01*
X129238640Y-81033851D01*
X129276344Y-81051683D01*
X129312117Y-81073125D01*
X129345617Y-81097971D01*
X129376520Y-81125980D01*
X129404529Y-81156883D01*
X129429375Y-81190383D01*
X129450817Y-81226156D01*
X129468649Y-81263860D01*
X129482700Y-81303129D01*
X129492834Y-81343587D01*
X129498954Y-81384843D01*
X129501000Y-81426500D01*
X129501000Y-82276500D01*
X129498954Y-82318157D01*
X129492834Y-82359413D01*
X129482700Y-82399871D01*
X129468649Y-82439140D01*
X129450817Y-82476844D01*
X129429375Y-82512617D01*
X129404529Y-82546117D01*
X129376520Y-82577020D01*
X129345617Y-82605029D01*
X129312117Y-82629875D01*
X129276344Y-82651317D01*
X129238640Y-82669149D01*
X129199371Y-82683200D01*
X129158913Y-82693334D01*
X129117657Y-82699454D01*
X129076000Y-82701500D01*
X128226000Y-82701500D01*
X128184343Y-82699454D01*
X128143087Y-82693334D01*
X128102629Y-82683200D01*
X128063360Y-82669149D01*
X128025656Y-82651317D01*
X127989883Y-82629875D01*
X127956383Y-82605029D01*
X127925480Y-82577020D01*
X127897471Y-82546117D01*
X127872625Y-82512617D01*
X127851183Y-82476844D01*
X127833351Y-82439140D01*
X127819300Y-82399871D01*
X127809166Y-82359413D01*
X127803046Y-82318157D01*
X127801000Y-82276500D01*
X127801000Y-81426500D01*
X127803046Y-81384843D01*
X127809166Y-81343587D01*
X127819300Y-81303129D01*
X127833351Y-81263860D01*
X127851183Y-81226156D01*
X127872625Y-81190383D01*
X127897471Y-81156883D01*
X127925480Y-81125980D01*
X127956383Y-81097971D01*
X127989883Y-81073125D01*
X128025656Y-81051683D01*
X128063360Y-81033851D01*
X128102629Y-81019800D01*
X128143087Y-81009666D01*
X128184343Y-81003546D01*
X128226000Y-81001500D01*
X129076000Y-81001500D01*
X129117657Y-81003546D01*
X129117657Y-81003546D01*
G37*
D14*
G04 #@! TD*
G04 #@! TO.P,J2,2*
G04 #@! TO.N,Net-(J1-Pad2)*
X128651000Y-81851500D03*
D10*
G04 #@! TO.N,Net-(J1-Pad3)*
G04 #@! TO.C,J2*
G36*
X129117657Y-78463546D02*
X129158913Y-78469666D01*
X129199371Y-78479800D01*
X129238640Y-78493851D01*
X129276344Y-78511683D01*
X129312117Y-78533125D01*
X129345617Y-78557971D01*
X129376520Y-78585980D01*
X129404529Y-78616883D01*
X129429375Y-78650383D01*
X129450817Y-78686156D01*
X129468649Y-78723860D01*
X129482700Y-78763129D01*
X129492834Y-78803587D01*
X129498954Y-78844843D01*
X129501000Y-78886500D01*
X129501000Y-79736500D01*
X129498954Y-79778157D01*
X129492834Y-79819413D01*
X129482700Y-79859871D01*
X129468649Y-79899140D01*
X129450817Y-79936844D01*
X129429375Y-79972617D01*
X129404529Y-80006117D01*
X129376520Y-80037020D01*
X129345617Y-80065029D01*
X129312117Y-80089875D01*
X129276344Y-80111317D01*
X129238640Y-80129149D01*
X129199371Y-80143200D01*
X129158913Y-80153334D01*
X129117657Y-80159454D01*
X129076000Y-80161500D01*
X128226000Y-80161500D01*
X128184343Y-80159454D01*
X128143087Y-80153334D01*
X128102629Y-80143200D01*
X128063360Y-80129149D01*
X128025656Y-80111317D01*
X127989883Y-80089875D01*
X127956383Y-80065029D01*
X127925480Y-80037020D01*
X127897471Y-80006117D01*
X127872625Y-79972617D01*
X127851183Y-79936844D01*
X127833351Y-79899140D01*
X127819300Y-79859871D01*
X127809166Y-79819413D01*
X127803046Y-79778157D01*
X127801000Y-79736500D01*
X127801000Y-78886500D01*
X127803046Y-78844843D01*
X127809166Y-78803587D01*
X127819300Y-78763129D01*
X127833351Y-78723860D01*
X127851183Y-78686156D01*
X127872625Y-78650383D01*
X127897471Y-78616883D01*
X127925480Y-78585980D01*
X127956383Y-78557971D01*
X127989883Y-78533125D01*
X128025656Y-78511683D01*
X128063360Y-78493851D01*
X128102629Y-78479800D01*
X128143087Y-78469666D01*
X128184343Y-78463546D01*
X128226000Y-78461500D01*
X129076000Y-78461500D01*
X129117657Y-78463546D01*
X129117657Y-78463546D01*
G37*
D14*
G04 #@! TD*
G04 #@! TO.P,J2,3*
G04 #@! TO.N,Net-(J1-Pad3)*
X128651000Y-79311500D03*
D10*
G04 #@! TO.N,Net-(J1-Pad4)*
G04 #@! TO.C,J2*
G36*
X129117657Y-75923546D02*
X129158913Y-75929666D01*
X129199371Y-75939800D01*
X129238640Y-75953851D01*
X129276344Y-75971683D01*
X129312117Y-75993125D01*
X129345617Y-76017971D01*
X129376520Y-76045980D01*
X129404529Y-76076883D01*
X129429375Y-76110383D01*
X129450817Y-76146156D01*
X129468649Y-76183860D01*
X129482700Y-76223129D01*
X129492834Y-76263587D01*
X129498954Y-76304843D01*
X129501000Y-76346500D01*
X129501000Y-77196500D01*
X129498954Y-77238157D01*
X129492834Y-77279413D01*
X129482700Y-77319871D01*
X129468649Y-77359140D01*
X129450817Y-77396844D01*
X129429375Y-77432617D01*
X129404529Y-77466117D01*
X129376520Y-77497020D01*
X129345617Y-77525029D01*
X129312117Y-77549875D01*
X129276344Y-77571317D01*
X129238640Y-77589149D01*
X129199371Y-77603200D01*
X129158913Y-77613334D01*
X129117657Y-77619454D01*
X129076000Y-77621500D01*
X128226000Y-77621500D01*
X128184343Y-77619454D01*
X128143087Y-77613334D01*
X128102629Y-77603200D01*
X128063360Y-77589149D01*
X128025656Y-77571317D01*
X127989883Y-77549875D01*
X127956383Y-77525029D01*
X127925480Y-77497020D01*
X127897471Y-77466117D01*
X127872625Y-77432617D01*
X127851183Y-77396844D01*
X127833351Y-77359140D01*
X127819300Y-77319871D01*
X127809166Y-77279413D01*
X127803046Y-77238157D01*
X127801000Y-77196500D01*
X127801000Y-76346500D01*
X127803046Y-76304843D01*
X127809166Y-76263587D01*
X127819300Y-76223129D01*
X127833351Y-76183860D01*
X127851183Y-76146156D01*
X127872625Y-76110383D01*
X127897471Y-76076883D01*
X127925480Y-76045980D01*
X127956383Y-76017971D01*
X127989883Y-75993125D01*
X128025656Y-75971683D01*
X128063360Y-75953851D01*
X128102629Y-75939800D01*
X128143087Y-75929666D01*
X128184343Y-75923546D01*
X128226000Y-75921500D01*
X129076000Y-75921500D01*
X129117657Y-75923546D01*
X129117657Y-75923546D01*
G37*
D14*
G04 #@! TD*
G04 #@! TO.P,J2,4*
G04 #@! TO.N,Net-(J1-Pad4)*
X128651000Y-76771500D03*
D10*
G04 #@! TO.N,Net-(J1-Pad5)*
G04 #@! TO.C,J2*
G36*
X129117657Y-73383546D02*
X129158913Y-73389666D01*
X129199371Y-73399800D01*
X129238640Y-73413851D01*
X129276344Y-73431683D01*
X129312117Y-73453125D01*
X129345617Y-73477971D01*
X129376520Y-73505980D01*
X129404529Y-73536883D01*
X129429375Y-73570383D01*
X129450817Y-73606156D01*
X129468649Y-73643860D01*
X129482700Y-73683129D01*
X129492834Y-73723587D01*
X129498954Y-73764843D01*
X129501000Y-73806500D01*
X129501000Y-74656500D01*
X129498954Y-74698157D01*
X129492834Y-74739413D01*
X129482700Y-74779871D01*
X129468649Y-74819140D01*
X129450817Y-74856844D01*
X129429375Y-74892617D01*
X129404529Y-74926117D01*
X129376520Y-74957020D01*
X129345617Y-74985029D01*
X129312117Y-75009875D01*
X129276344Y-75031317D01*
X129238640Y-75049149D01*
X129199371Y-75063200D01*
X129158913Y-75073334D01*
X129117657Y-75079454D01*
X129076000Y-75081500D01*
X128226000Y-75081500D01*
X128184343Y-75079454D01*
X128143087Y-75073334D01*
X128102629Y-75063200D01*
X128063360Y-75049149D01*
X128025656Y-75031317D01*
X127989883Y-75009875D01*
X127956383Y-74985029D01*
X127925480Y-74957020D01*
X127897471Y-74926117D01*
X127872625Y-74892617D01*
X127851183Y-74856844D01*
X127833351Y-74819140D01*
X127819300Y-74779871D01*
X127809166Y-74739413D01*
X127803046Y-74698157D01*
X127801000Y-74656500D01*
X127801000Y-73806500D01*
X127803046Y-73764843D01*
X127809166Y-73723587D01*
X127819300Y-73683129D01*
X127833351Y-73643860D01*
X127851183Y-73606156D01*
X127872625Y-73570383D01*
X127897471Y-73536883D01*
X127925480Y-73505980D01*
X127956383Y-73477971D01*
X127989883Y-73453125D01*
X128025656Y-73431683D01*
X128063360Y-73413851D01*
X128102629Y-73399800D01*
X128143087Y-73389666D01*
X128184343Y-73383546D01*
X128226000Y-73381500D01*
X129076000Y-73381500D01*
X129117657Y-73383546D01*
X129117657Y-73383546D01*
G37*
D14*
G04 #@! TD*
G04 #@! TO.P,J2,5*
G04 #@! TO.N,Net-(J1-Pad5)*
X128651000Y-74231500D03*
D15*
G04 #@! TO.N,Net-(J1-Pad2)*
X133335000Y-79961500D02*
X135138500Y-79961500D01*
X132484100Y-79961500D02*
X135126000Y-79961500D01*
D16*
X130594100Y-81851500D02*
X131216400Y-81229200D01*
X128651000Y-81851500D02*
X130594100Y-81851500D01*
D15*
X131216400Y-81229200D02*
X132484100Y-79961500D01*
D16*
G04 #@! TO.N,Net-(J1-Pad1)*
X128651000Y-84391500D02*
X130263000Y-84391500D01*
X130263000Y-84391500D02*
X131254050Y-83400450D01*
D15*
X134043000Y-80611500D02*
X135126000Y-80611500D01*
X131254050Y-83400450D02*
X134043000Y-80611500D01*
G04 #@! TO.N,Net-(J1-Pad5)*
X135138500Y-78011500D02*
X134336000Y-78011500D01*
D16*
X128651000Y-74231500D02*
X130263000Y-74231500D01*
X130263000Y-74231500D02*
X131317550Y-75286050D01*
D15*
X134043000Y-78011500D02*
X135126000Y-78011500D01*
X131317550Y-75286050D02*
X134043000Y-78011500D01*
D16*
G04 #@! TO.N,Net-(J1-Pad4)*
X128651000Y-76771500D02*
X130454400Y-76771500D01*
D15*
X130467100Y-76758800D02*
X130454400Y-76771500D01*
X135138500Y-78661500D02*
X132437900Y-78661500D01*
X132437900Y-78661500D02*
X132435600Y-78663800D01*
D16*
X130530600Y-76758800D02*
X131368800Y-77597000D01*
X130467100Y-76758800D02*
X130530600Y-76758800D01*
D15*
X132435600Y-78663800D02*
X131368800Y-77597000D01*
D16*
G04 #@! TO.N,Net-(J1-Pad3)*
X128651000Y-79311500D02*
X130860800Y-79311500D01*
D15*
X130860800Y-79311500D02*
X135126000Y-79311500D01*
G04 #@! TD*
M02*
