G04 #@! TF.GenerationSoftware,KiCad,Pcbnew,5.0.1*
G04 #@! TF.CreationDate,2018-12-16T17:35:59+01:00*
G04 #@! TF.ProjectId,micro-usb-breakout,6D6963726F2D7573622D627265616B6F,rev?*
G04 #@! TF.SameCoordinates,PX84eec30PY52c4f70*
G04 #@! TF.FileFunction,Copper,L1,Top,Signal*
G04 #@! TF.FilePolarity,Positive*
%FSLAX46Y46*%
G04 Gerber Fmt 4.6, Leading zero omitted, Abs format (unit mm)*
G04 Created by KiCad (PCBNEW 5.0.1) date Sun 16 Dec 2018 05:35:59 PM CET*
%MOMM*%
%LPD*%
G01*
G04 APERTURE LIST*
G04 #@! TA.AperFunction,Conductor*
%ADD10C,0.100000*%
G04 #@! TD*
G04 #@! TA.AperFunction,ComponentPad*
%ADD11C,1.450000*%
G04 #@! TD*
G04 #@! TA.AperFunction,SMDPad,CuDef*
%ADD12R,1.350000X0.400000*%
G04 #@! TD*
G04 #@! TA.AperFunction,ComponentPad*
%ADD13C,1.200000*%
G04 #@! TD*
G04 #@! TA.AperFunction,ComponentPad*
%ADD14C,1.700000*%
G04 #@! TD*
G04 #@! TA.AperFunction,Conductor*
%ADD15C,0.406400*%
G04 #@! TD*
G04 #@! TA.AperFunction,Conductor*
%ADD16C,0.762000*%
G04 #@! TD*
G04 APERTURE END LIST*
D10*
G04 #@! TO.N,*
G04 #@! TO.C,J1*
G36*
X-3865969Y5701754D02*
X-3830780Y5696535D01*
X-3796272Y5687891D01*
X-3762777Y5675906D01*
X-3730619Y5660696D01*
X-3700106Y5642408D01*
X-3671532Y5621216D01*
X-3645174Y5597326D01*
X-3621284Y5570968D01*
X-3600092Y5542394D01*
X-3581804Y5511881D01*
X-3566594Y5479723D01*
X-3554609Y5446228D01*
X-3545965Y5411720D01*
X-3540746Y5376531D01*
X-3539000Y5341000D01*
X-3539000Y4616000D01*
X-3540746Y4580469D01*
X-3545965Y4545280D01*
X-3554609Y4510772D01*
X-3566594Y4477277D01*
X-3581804Y4445119D01*
X-3600092Y4414606D01*
X-3621284Y4386032D01*
X-3645174Y4359674D01*
X-3671532Y4335784D01*
X-3700106Y4314592D01*
X-3730619Y4296304D01*
X-3762777Y4281094D01*
X-3796272Y4269109D01*
X-3830780Y4260465D01*
X-3865969Y4255246D01*
X-3901500Y4253500D01*
X-4626500Y4253500D01*
X-4662031Y4255246D01*
X-4697220Y4260465D01*
X-4731728Y4269109D01*
X-4765223Y4281094D01*
X-4797381Y4296304D01*
X-4827894Y4314592D01*
X-4856468Y4335784D01*
X-4882826Y4359674D01*
X-4906716Y4386032D01*
X-4927908Y4414606D01*
X-4946196Y4445119D01*
X-4961406Y4477277D01*
X-4973391Y4510772D01*
X-4982035Y4545280D01*
X-4987254Y4580469D01*
X-4989000Y4616000D01*
X-4989000Y5341000D01*
X-4987254Y5376531D01*
X-4982035Y5411720D01*
X-4973391Y5446228D01*
X-4961406Y5479723D01*
X-4946196Y5511881D01*
X-4927908Y5542394D01*
X-4906716Y5570968D01*
X-4882826Y5597326D01*
X-4856468Y5621216D01*
X-4827894Y5642408D01*
X-4797381Y5660696D01*
X-4765223Y5675906D01*
X-4731728Y5687891D01*
X-4697220Y5696535D01*
X-4662031Y5701754D01*
X-4626500Y5703500D01*
X-3901500Y5703500D01*
X-3865969Y5701754D01*
X-3865969Y5701754D01*
G37*
D11*
G04 #@! TD*
G04 #@! TO.P,J1,*
G04 #@! TO.N,*
X-4264000Y4978500D03*
D12*
G04 #@! TO.P,J1,2*
G04 #@! TO.N,Net-(J1-Pad2)*
X-4264000Y6828500D03*
G04 #@! TO.P,J1,1*
G04 #@! TO.N,Net-(J1-Pad1)*
X-4264000Y6178500D03*
G04 #@! TO.P,J1,5*
G04 #@! TO.N,Net-(J1-Pad5)*
X-4264000Y8778500D03*
G04 #@! TO.P,J1,4*
G04 #@! TO.N,Net-(J1-Pad4)*
X-4264000Y8128500D03*
G04 #@! TO.P,J1,3*
G04 #@! TO.N,Net-(J1-Pad3)*
X-4264000Y7478500D03*
D10*
G04 #@! TD*
G04 #@! TO.N,*
G04 #@! TO.C,J1*
G36*
X-3865969Y10701754D02*
X-3830780Y10696535D01*
X-3796272Y10687891D01*
X-3762777Y10675906D01*
X-3730619Y10660696D01*
X-3700106Y10642408D01*
X-3671532Y10621216D01*
X-3645174Y10597326D01*
X-3621284Y10570968D01*
X-3600092Y10542394D01*
X-3581804Y10511881D01*
X-3566594Y10479723D01*
X-3554609Y10446228D01*
X-3545965Y10411720D01*
X-3540746Y10376531D01*
X-3539000Y10341000D01*
X-3539000Y9616000D01*
X-3540746Y9580469D01*
X-3545965Y9545280D01*
X-3554609Y9510772D01*
X-3566594Y9477277D01*
X-3581804Y9445119D01*
X-3600092Y9414606D01*
X-3621284Y9386032D01*
X-3645174Y9359674D01*
X-3671532Y9335784D01*
X-3700106Y9314592D01*
X-3730619Y9296304D01*
X-3762777Y9281094D01*
X-3796272Y9269109D01*
X-3830780Y9260465D01*
X-3865969Y9255246D01*
X-3901500Y9253500D01*
X-4626500Y9253500D01*
X-4662031Y9255246D01*
X-4697220Y9260465D01*
X-4731728Y9269109D01*
X-4765223Y9281094D01*
X-4797381Y9296304D01*
X-4827894Y9314592D01*
X-4856468Y9335784D01*
X-4882826Y9359674D01*
X-4906716Y9386032D01*
X-4927908Y9414606D01*
X-4946196Y9445119D01*
X-4961406Y9477277D01*
X-4973391Y9510772D01*
X-4982035Y9545280D01*
X-4987254Y9580469D01*
X-4989000Y9616000D01*
X-4989000Y10341000D01*
X-4987254Y10376531D01*
X-4982035Y10411720D01*
X-4973391Y10446228D01*
X-4961406Y10479723D01*
X-4946196Y10511881D01*
X-4927908Y10542394D01*
X-4906716Y10570968D01*
X-4882826Y10597326D01*
X-4856468Y10621216D01*
X-4827894Y10642408D01*
X-4797381Y10660696D01*
X-4765223Y10675906D01*
X-4731728Y10687891D01*
X-4697220Y10696535D01*
X-4662031Y10701754D01*
X-4626500Y10703500D01*
X-3901500Y10703500D01*
X-3865969Y10701754D01*
X-3865969Y10701754D01*
G37*
D11*
G04 #@! TO.P,J1,*
G04 #@! TO.N,*
X-4264000Y9978500D03*
D10*
G04 #@! TD*
G04 #@! TO.N,*
G04 #@! TO.C,J1*
G36*
X-884595Y4577055D02*
X-855473Y4572736D01*
X-826915Y4565582D01*
X-799195Y4555664D01*
X-772581Y4543076D01*
X-747329Y4527941D01*
X-723682Y4510403D01*
X-701868Y4490632D01*
X-682097Y4468818D01*
X-664559Y4445171D01*
X-649424Y4419919D01*
X-636836Y4393305D01*
X-626918Y4365585D01*
X-619764Y4337027D01*
X-615445Y4307905D01*
X-614000Y4278500D01*
X-614000Y3678500D01*
X-615445Y3649095D01*
X-619764Y3619973D01*
X-626918Y3591415D01*
X-636836Y3563695D01*
X-649424Y3537081D01*
X-664559Y3511829D01*
X-682097Y3488182D01*
X-701868Y3466368D01*
X-723682Y3446597D01*
X-747329Y3429059D01*
X-772581Y3413924D01*
X-799195Y3401336D01*
X-826915Y3391418D01*
X-855473Y3384264D01*
X-884595Y3379945D01*
X-914000Y3378500D01*
X-2214000Y3378500D01*
X-2243405Y3379945D01*
X-2272527Y3384264D01*
X-2301085Y3391418D01*
X-2328805Y3401336D01*
X-2355419Y3413924D01*
X-2380671Y3429059D01*
X-2404318Y3446597D01*
X-2426132Y3466368D01*
X-2445903Y3488182D01*
X-2463441Y3511829D01*
X-2478576Y3537081D01*
X-2491164Y3563695D01*
X-2501082Y3591415D01*
X-2508236Y3619973D01*
X-2512555Y3649095D01*
X-2514000Y3678500D01*
X-2514000Y4278500D01*
X-2512555Y4307905D01*
X-2508236Y4337027D01*
X-2501082Y4365585D01*
X-2491164Y4393305D01*
X-2478576Y4419919D01*
X-2463441Y4445171D01*
X-2445903Y4468818D01*
X-2426132Y4490632D01*
X-2404318Y4510403D01*
X-2380671Y4527941D01*
X-2355419Y4543076D01*
X-2328805Y4555664D01*
X-2301085Y4565582D01*
X-2272527Y4572736D01*
X-2243405Y4577055D01*
X-2214000Y4578500D01*
X-914000Y4578500D01*
X-884595Y4577055D01*
X-884595Y4577055D01*
G37*
D13*
G04 #@! TO.P,J1,*
G04 #@! TO.N,*
X-1564000Y3978500D03*
D10*
G04 #@! TD*
G04 #@! TO.N,*
G04 #@! TO.C,J1*
G36*
X-884595Y11577055D02*
X-855473Y11572736D01*
X-826915Y11565582D01*
X-799195Y11555664D01*
X-772581Y11543076D01*
X-747329Y11527941D01*
X-723682Y11510403D01*
X-701868Y11490632D01*
X-682097Y11468818D01*
X-664559Y11445171D01*
X-649424Y11419919D01*
X-636836Y11393305D01*
X-626918Y11365585D01*
X-619764Y11337027D01*
X-615445Y11307905D01*
X-614000Y11278500D01*
X-614000Y10678500D01*
X-615445Y10649095D01*
X-619764Y10619973D01*
X-626918Y10591415D01*
X-636836Y10563695D01*
X-649424Y10537081D01*
X-664559Y10511829D01*
X-682097Y10488182D01*
X-701868Y10466368D01*
X-723682Y10446597D01*
X-747329Y10429059D01*
X-772581Y10413924D01*
X-799195Y10401336D01*
X-826915Y10391418D01*
X-855473Y10384264D01*
X-884595Y10379945D01*
X-914000Y10378500D01*
X-2214000Y10378500D01*
X-2243405Y10379945D01*
X-2272527Y10384264D01*
X-2301085Y10391418D01*
X-2328805Y10401336D01*
X-2355419Y10413924D01*
X-2380671Y10429059D01*
X-2404318Y10446597D01*
X-2426132Y10466368D01*
X-2445903Y10488182D01*
X-2463441Y10511829D01*
X-2478576Y10537081D01*
X-2491164Y10563695D01*
X-2501082Y10591415D01*
X-2508236Y10619973D01*
X-2512555Y10649095D01*
X-2514000Y10678500D01*
X-2514000Y11278500D01*
X-2512555Y11307905D01*
X-2508236Y11337027D01*
X-2501082Y11365585D01*
X-2491164Y11393305D01*
X-2478576Y11419919D01*
X-2463441Y11445171D01*
X-2445903Y11468818D01*
X-2426132Y11490632D01*
X-2404318Y11510403D01*
X-2380671Y11527941D01*
X-2355419Y11543076D01*
X-2328805Y11555664D01*
X-2301085Y11565582D01*
X-2272527Y11572736D01*
X-2243405Y11577055D01*
X-2214000Y11578500D01*
X-914000Y11578500D01*
X-884595Y11577055D01*
X-884595Y11577055D01*
G37*
D13*
G04 #@! TO.P,J1,*
G04 #@! TO.N,*
X-1564000Y10978500D03*
G04 #@! TD*
D10*
G04 #@! TO.N,Net-(J1-Pad1)*
G04 #@! TO.C,J2*
G36*
X-10272343Y3246454D02*
X-10231087Y3240334D01*
X-10190629Y3230200D01*
X-10151360Y3216149D01*
X-10113656Y3198317D01*
X-10077883Y3176875D01*
X-10044383Y3152029D01*
X-10013480Y3124020D01*
X-9985471Y3093117D01*
X-9960625Y3059617D01*
X-9939183Y3023844D01*
X-9921351Y2986140D01*
X-9907300Y2946871D01*
X-9897166Y2906413D01*
X-9891046Y2865157D01*
X-9889000Y2823500D01*
X-9889000Y1973500D01*
X-9891046Y1931843D01*
X-9897166Y1890587D01*
X-9907300Y1850129D01*
X-9921351Y1810860D01*
X-9939183Y1773156D01*
X-9960625Y1737383D01*
X-9985471Y1703883D01*
X-10013480Y1672980D01*
X-10044383Y1644971D01*
X-10077883Y1620125D01*
X-10113656Y1598683D01*
X-10151360Y1580851D01*
X-10190629Y1566800D01*
X-10231087Y1556666D01*
X-10272343Y1550546D01*
X-10314000Y1548500D01*
X-11164000Y1548500D01*
X-11205657Y1550546D01*
X-11246913Y1556666D01*
X-11287371Y1566800D01*
X-11326640Y1580851D01*
X-11364344Y1598683D01*
X-11400117Y1620125D01*
X-11433617Y1644971D01*
X-11464520Y1672980D01*
X-11492529Y1703883D01*
X-11517375Y1737383D01*
X-11538817Y1773156D01*
X-11556649Y1810860D01*
X-11570700Y1850129D01*
X-11580834Y1890587D01*
X-11586954Y1931843D01*
X-11589000Y1973500D01*
X-11589000Y2823500D01*
X-11586954Y2865157D01*
X-11580834Y2906413D01*
X-11570700Y2946871D01*
X-11556649Y2986140D01*
X-11538817Y3023844D01*
X-11517375Y3059617D01*
X-11492529Y3093117D01*
X-11464520Y3124020D01*
X-11433617Y3152029D01*
X-11400117Y3176875D01*
X-11364344Y3198317D01*
X-11326640Y3216149D01*
X-11287371Y3230200D01*
X-11246913Y3240334D01*
X-11205657Y3246454D01*
X-11164000Y3248500D01*
X-10314000Y3248500D01*
X-10272343Y3246454D01*
X-10272343Y3246454D01*
G37*
D14*
G04 #@! TD*
G04 #@! TO.P,J2,1*
G04 #@! TO.N,Net-(J1-Pad1)*
X-10739000Y2398500D03*
D10*
G04 #@! TO.N,Net-(J1-Pad2)*
G04 #@! TO.C,J2*
G36*
X-10272343Y5786454D02*
X-10231087Y5780334D01*
X-10190629Y5770200D01*
X-10151360Y5756149D01*
X-10113656Y5738317D01*
X-10077883Y5716875D01*
X-10044383Y5692029D01*
X-10013480Y5664020D01*
X-9985471Y5633117D01*
X-9960625Y5599617D01*
X-9939183Y5563844D01*
X-9921351Y5526140D01*
X-9907300Y5486871D01*
X-9897166Y5446413D01*
X-9891046Y5405157D01*
X-9889000Y5363500D01*
X-9889000Y4513500D01*
X-9891046Y4471843D01*
X-9897166Y4430587D01*
X-9907300Y4390129D01*
X-9921351Y4350860D01*
X-9939183Y4313156D01*
X-9960625Y4277383D01*
X-9985471Y4243883D01*
X-10013480Y4212980D01*
X-10044383Y4184971D01*
X-10077883Y4160125D01*
X-10113656Y4138683D01*
X-10151360Y4120851D01*
X-10190629Y4106800D01*
X-10231087Y4096666D01*
X-10272343Y4090546D01*
X-10314000Y4088500D01*
X-11164000Y4088500D01*
X-11205657Y4090546D01*
X-11246913Y4096666D01*
X-11287371Y4106800D01*
X-11326640Y4120851D01*
X-11364344Y4138683D01*
X-11400117Y4160125D01*
X-11433617Y4184971D01*
X-11464520Y4212980D01*
X-11492529Y4243883D01*
X-11517375Y4277383D01*
X-11538817Y4313156D01*
X-11556649Y4350860D01*
X-11570700Y4390129D01*
X-11580834Y4430587D01*
X-11586954Y4471843D01*
X-11589000Y4513500D01*
X-11589000Y5363500D01*
X-11586954Y5405157D01*
X-11580834Y5446413D01*
X-11570700Y5486871D01*
X-11556649Y5526140D01*
X-11538817Y5563844D01*
X-11517375Y5599617D01*
X-11492529Y5633117D01*
X-11464520Y5664020D01*
X-11433617Y5692029D01*
X-11400117Y5716875D01*
X-11364344Y5738317D01*
X-11326640Y5756149D01*
X-11287371Y5770200D01*
X-11246913Y5780334D01*
X-11205657Y5786454D01*
X-11164000Y5788500D01*
X-10314000Y5788500D01*
X-10272343Y5786454D01*
X-10272343Y5786454D01*
G37*
D14*
G04 #@! TD*
G04 #@! TO.P,J2,2*
G04 #@! TO.N,Net-(J1-Pad2)*
X-10739000Y4938500D03*
D10*
G04 #@! TO.N,Net-(J1-Pad3)*
G04 #@! TO.C,J2*
G36*
X-10272343Y8326454D02*
X-10231087Y8320334D01*
X-10190629Y8310200D01*
X-10151360Y8296149D01*
X-10113656Y8278317D01*
X-10077883Y8256875D01*
X-10044383Y8232029D01*
X-10013480Y8204020D01*
X-9985471Y8173117D01*
X-9960625Y8139617D01*
X-9939183Y8103844D01*
X-9921351Y8066140D01*
X-9907300Y8026871D01*
X-9897166Y7986413D01*
X-9891046Y7945157D01*
X-9889000Y7903500D01*
X-9889000Y7053500D01*
X-9891046Y7011843D01*
X-9897166Y6970587D01*
X-9907300Y6930129D01*
X-9921351Y6890860D01*
X-9939183Y6853156D01*
X-9960625Y6817383D01*
X-9985471Y6783883D01*
X-10013480Y6752980D01*
X-10044383Y6724971D01*
X-10077883Y6700125D01*
X-10113656Y6678683D01*
X-10151360Y6660851D01*
X-10190629Y6646800D01*
X-10231087Y6636666D01*
X-10272343Y6630546D01*
X-10314000Y6628500D01*
X-11164000Y6628500D01*
X-11205657Y6630546D01*
X-11246913Y6636666D01*
X-11287371Y6646800D01*
X-11326640Y6660851D01*
X-11364344Y6678683D01*
X-11400117Y6700125D01*
X-11433617Y6724971D01*
X-11464520Y6752980D01*
X-11492529Y6783883D01*
X-11517375Y6817383D01*
X-11538817Y6853156D01*
X-11556649Y6890860D01*
X-11570700Y6930129D01*
X-11580834Y6970587D01*
X-11586954Y7011843D01*
X-11589000Y7053500D01*
X-11589000Y7903500D01*
X-11586954Y7945157D01*
X-11580834Y7986413D01*
X-11570700Y8026871D01*
X-11556649Y8066140D01*
X-11538817Y8103844D01*
X-11517375Y8139617D01*
X-11492529Y8173117D01*
X-11464520Y8204020D01*
X-11433617Y8232029D01*
X-11400117Y8256875D01*
X-11364344Y8278317D01*
X-11326640Y8296149D01*
X-11287371Y8310200D01*
X-11246913Y8320334D01*
X-11205657Y8326454D01*
X-11164000Y8328500D01*
X-10314000Y8328500D01*
X-10272343Y8326454D01*
X-10272343Y8326454D01*
G37*
D14*
G04 #@! TD*
G04 #@! TO.P,J2,3*
G04 #@! TO.N,Net-(J1-Pad3)*
X-10739000Y7478500D03*
D10*
G04 #@! TO.N,Net-(J1-Pad4)*
G04 #@! TO.C,J2*
G36*
X-10272343Y10866454D02*
X-10231087Y10860334D01*
X-10190629Y10850200D01*
X-10151360Y10836149D01*
X-10113656Y10818317D01*
X-10077883Y10796875D01*
X-10044383Y10772029D01*
X-10013480Y10744020D01*
X-9985471Y10713117D01*
X-9960625Y10679617D01*
X-9939183Y10643844D01*
X-9921351Y10606140D01*
X-9907300Y10566871D01*
X-9897166Y10526413D01*
X-9891046Y10485157D01*
X-9889000Y10443500D01*
X-9889000Y9593500D01*
X-9891046Y9551843D01*
X-9897166Y9510587D01*
X-9907300Y9470129D01*
X-9921351Y9430860D01*
X-9939183Y9393156D01*
X-9960625Y9357383D01*
X-9985471Y9323883D01*
X-10013480Y9292980D01*
X-10044383Y9264971D01*
X-10077883Y9240125D01*
X-10113656Y9218683D01*
X-10151360Y9200851D01*
X-10190629Y9186800D01*
X-10231087Y9176666D01*
X-10272343Y9170546D01*
X-10314000Y9168500D01*
X-11164000Y9168500D01*
X-11205657Y9170546D01*
X-11246913Y9176666D01*
X-11287371Y9186800D01*
X-11326640Y9200851D01*
X-11364344Y9218683D01*
X-11400117Y9240125D01*
X-11433617Y9264971D01*
X-11464520Y9292980D01*
X-11492529Y9323883D01*
X-11517375Y9357383D01*
X-11538817Y9393156D01*
X-11556649Y9430860D01*
X-11570700Y9470129D01*
X-11580834Y9510587D01*
X-11586954Y9551843D01*
X-11589000Y9593500D01*
X-11589000Y10443500D01*
X-11586954Y10485157D01*
X-11580834Y10526413D01*
X-11570700Y10566871D01*
X-11556649Y10606140D01*
X-11538817Y10643844D01*
X-11517375Y10679617D01*
X-11492529Y10713117D01*
X-11464520Y10744020D01*
X-11433617Y10772029D01*
X-11400117Y10796875D01*
X-11364344Y10818317D01*
X-11326640Y10836149D01*
X-11287371Y10850200D01*
X-11246913Y10860334D01*
X-11205657Y10866454D01*
X-11164000Y10868500D01*
X-10314000Y10868500D01*
X-10272343Y10866454D01*
X-10272343Y10866454D01*
G37*
D14*
G04 #@! TD*
G04 #@! TO.P,J2,4*
G04 #@! TO.N,Net-(J1-Pad4)*
X-10739000Y10018500D03*
D10*
G04 #@! TO.N,Net-(J1-Pad5)*
G04 #@! TO.C,J2*
G36*
X-10272343Y13406454D02*
X-10231087Y13400334D01*
X-10190629Y13390200D01*
X-10151360Y13376149D01*
X-10113656Y13358317D01*
X-10077883Y13336875D01*
X-10044383Y13312029D01*
X-10013480Y13284020D01*
X-9985471Y13253117D01*
X-9960625Y13219617D01*
X-9939183Y13183844D01*
X-9921351Y13146140D01*
X-9907300Y13106871D01*
X-9897166Y13066413D01*
X-9891046Y13025157D01*
X-9889000Y12983500D01*
X-9889000Y12133500D01*
X-9891046Y12091843D01*
X-9897166Y12050587D01*
X-9907300Y12010129D01*
X-9921351Y11970860D01*
X-9939183Y11933156D01*
X-9960625Y11897383D01*
X-9985471Y11863883D01*
X-10013480Y11832980D01*
X-10044383Y11804971D01*
X-10077883Y11780125D01*
X-10113656Y11758683D01*
X-10151360Y11740851D01*
X-10190629Y11726800D01*
X-10231087Y11716666D01*
X-10272343Y11710546D01*
X-10314000Y11708500D01*
X-11164000Y11708500D01*
X-11205657Y11710546D01*
X-11246913Y11716666D01*
X-11287371Y11726800D01*
X-11326640Y11740851D01*
X-11364344Y11758683D01*
X-11400117Y11780125D01*
X-11433617Y11804971D01*
X-11464520Y11832980D01*
X-11492529Y11863883D01*
X-11517375Y11897383D01*
X-11538817Y11933156D01*
X-11556649Y11970860D01*
X-11570700Y12010129D01*
X-11580834Y12050587D01*
X-11586954Y12091843D01*
X-11589000Y12133500D01*
X-11589000Y12983500D01*
X-11586954Y13025157D01*
X-11580834Y13066413D01*
X-11570700Y13106871D01*
X-11556649Y13146140D01*
X-11538817Y13183844D01*
X-11517375Y13219617D01*
X-11492529Y13253117D01*
X-11464520Y13284020D01*
X-11433617Y13312029D01*
X-11400117Y13336875D01*
X-11364344Y13358317D01*
X-11326640Y13376149D01*
X-11287371Y13390200D01*
X-11246913Y13400334D01*
X-11205657Y13406454D01*
X-11164000Y13408500D01*
X-10314000Y13408500D01*
X-10272343Y13406454D01*
X-10272343Y13406454D01*
G37*
D14*
G04 #@! TD*
G04 #@! TO.P,J2,5*
G04 #@! TO.N,Net-(J1-Pad5)*
X-10739000Y12558500D03*
D15*
G04 #@! TO.N,Net-(J1-Pad2)*
X-6055000Y6828500D02*
X-4251500Y6828500D01*
X-6905900Y6828500D02*
X-4264000Y6828500D01*
D16*
X-8795900Y4938500D02*
X-8173600Y5560800D01*
X-10739000Y4938500D02*
X-8795900Y4938500D01*
D15*
X-8173600Y5560800D02*
X-6905900Y6828500D01*
D16*
G04 #@! TO.N,Net-(J1-Pad1)*
X-10739000Y2398500D02*
X-9127000Y2398500D01*
X-9127000Y2398500D02*
X-8135950Y3389550D01*
D15*
X-5347000Y6178500D02*
X-4264000Y6178500D01*
X-8135950Y3389550D02*
X-5347000Y6178500D01*
G04 #@! TO.N,Net-(J1-Pad5)*
X-4251500Y8778500D02*
X-5054000Y8778500D01*
D16*
X-10739000Y12558500D02*
X-9127000Y12558500D01*
X-9127000Y12558500D02*
X-8072450Y11503950D01*
D15*
X-5347000Y8778500D02*
X-4264000Y8778500D01*
X-8072450Y11503950D02*
X-5347000Y8778500D01*
D16*
G04 #@! TO.N,Net-(J1-Pad4)*
X-10739000Y10018500D02*
X-8935600Y10018500D01*
D15*
X-8922900Y10031200D02*
X-8935600Y10018500D01*
X-4251500Y8128500D02*
X-6952100Y8128500D01*
X-6952100Y8128500D02*
X-6954400Y8126200D01*
D16*
X-8859400Y10031200D02*
X-8021200Y9193000D01*
X-8922900Y10031200D02*
X-8859400Y10031200D01*
D15*
X-6954400Y8126200D02*
X-8021200Y9193000D01*
D16*
G04 #@! TO.N,Net-(J1-Pad3)*
X-10739000Y7478500D02*
X-8529200Y7478500D01*
D15*
X-8529200Y7478500D02*
X-4264000Y7478500D01*
G04 #@! TD*
M02*
